HIERARCHY
ROOT Hips
{
	OFFSET -0.001795 -0.223333 0.028219
	CHANNELS 6 Xposition Yposition Zposition Zrotation Yrotation Xrotation 
	JOINT LeftUpLeg
	{
		OFFSET 0.069520 -0.091406 -0.006815
		CHANNELS 3 Zrotation Yrotation Xrotation
		JOINT LeftLeg
		{
			OFFSET 0.034277 -0.375199 -0.004496
			CHANNELS 3 Zrotation Yrotation Xrotation
			JOINT LeftFoot
			{
				OFFSET -0.013596 -0.397961 -0.043693
				CHANNELS 3 Zrotation Yrotation Xrotation
				JOINT LeftToe
				{
					OFFSET 0.026358 -0.055791 0.119288
					CHANNELS 3 Zrotation Yrotation Xrotation
					End Site
					{
						OFFSET 0.000000 0.000000 0.000000
					}
				}
			}
		}
	}
	JOINT RightUpLeg
	{
		OFFSET -0.067670 -0.090522 -0.004320
		CHANNELS 3 Zrotation Yrotation Xrotation
		JOINT RightLeg
		{
			OFFSET -0.038290 -0.382569 -0.008850
			CHANNELS 3 Zrotation Yrotation Xrotation
			JOINT RightFoot
			{
				OFFSET 0.015774 -0.398415 -0.042312
				CHANNELS 3 Zrotation Yrotation Xrotation
				JOINT RightToe
				{
					OFFSET -0.025372 -0.048144 0.123348
					CHANNELS 3 Zrotation Yrotation Xrotation
					End Site
					{
						OFFSET 0.000000 0.000000 0.000000
					}
				}
			}
		}
	}
	JOINT Spine
	{
		OFFSET -0.002533 0.108963 -0.026696
		CHANNELS 3 Zrotation Yrotation Xrotation
		JOINT Spine1
		{
			OFFSET 0.005487 0.135180 0.001092
			CHANNELS 3 Zrotation Yrotation Xrotation
			JOINT Spine2
			{
				OFFSET 0.001457 0.052922 0.025425
				CHANNELS 3 Zrotation Yrotation Xrotation
				JOINT Neck
				{
					OFFSET -0.002778 0.213870 -0.042857
					CHANNELS 3 Zrotation Yrotation Xrotation
					JOINT Head
					{
						OFFSET 0.005152 0.064970 0.051349
						CHANNELS 3 Zrotation Yrotation Xrotation
						End Site
						{
							OFFSET 0.000000 0.000000 0.000000
						}
					}
				}
				JOINT LeftShoulder
				{
					OFFSET 0.078845 0.121749 -0.034090
					CHANNELS 3 Zrotation Yrotation Xrotation
					JOINT LeftArm
					{
						OFFSET 0.090977 0.030469 -0.008868
						CHANNELS 3 Zrotation Yrotation Xrotation
						JOINT LeftForeArm
						{
							OFFSET 0.259612 -0.012772 -0.027456
							CHANNELS 3 Zrotation Yrotation Xrotation
							JOINT LeftHand
							{
								OFFSET 0.249234 0.008986 -0.001171
								CHANNELS 3 Zrotation Yrotation Xrotation
								End Site
								{
									OFFSET 0.000000 0.000000 0.000000
								}
							}
						}
					}
				}
				JOINT RightShoulder
				{
					OFFSET -0.081759 0.118833 -0.038615
					CHANNELS 3 Zrotation Yrotation Xrotation
					JOINT RightArm
					{
						OFFSET -0.096012 0.032551 -0.009143
						CHANNELS 3 Zrotation Yrotation Xrotation
						JOINT RightForeArm
						{
							OFFSET -0.253742 -0.013329 -0.021401
							CHANNELS 3 Zrotation Yrotation Xrotation
							JOINT RightHand
							{
								OFFSET -0.255298 0.007772 -0.005559
								CHANNELS 3 Zrotation Yrotation Xrotation
								End Site
								{
									OFFSET 0.000000 0.000000 0.000000
								}
							}
						}
					}
				}
			}
		}
	}
}
MOTION
Frames: 13
Frame Time: 0.050000
0.000000 0.896968 0.000000 -6.263780 -40.603622 7.874024 -1.625800 1.658410 -37.487622 -0.112785 0.280033 8.827010 3.512355 6.067178 23.180646 0.000000 0.000000 0.000000 13.848737 -1.391659 5.668039 2.320993 1.320533 16.018531 -2.766849 0.747783 -6.329007 0.000000 0.000000 0.000000 -2.094631 0.550578 14.425516 -8.808611 3.480981 -5.292522 3.579866 18.067530 12.583012 9.520404 -3.673787 -25.855303 0.000000 0.000000 0.000000 -11.004094 -4.085815 1.571400 -59.279618 -15.918036 0.516115 -2.488222 -22.761888 1.638770 0.000000 0.000000 0.000000 12.198824 16.362490 5.926436 66.954638 32.673651 12.260496 0.208676 29.261242 0.989436 0.000000 0.000000 0.000000 
-0.043216 0.888865 0.027391 -7.120193 -41.702480 7.521948 -0.929111 1.198360 -32.705478 -1.114500 0.622491 9.054378 7.421576 11.009541 17.583673 0.000000 0.000000 0.000000 17.164450 -1.459281 6.101253 -0.348684 2.737359 21.182669 -2.234896 1.282292 -5.723980 0.000000 0.000000 0.000000 -4.323774 1.177227 15.863323 -5.620344 2.235590 -3.676501 2.174727 20.190107 12.173945 6.951687 -2.148300 -25.443345 0.000000 0.000000 0.000000 -13.458751 -5.647977 1.984247 -55.127268 -16.856043 0.520363 -1.235342 -21.558114 1.225025 0.000000 0.000000 0.000000 12.244571 17.726098 7.020497 67.950109 31.344061 11.841533 -1.368093 33.126986 0.857860 0.000000 0.000000 0.000000 
-0.085797 0.892365 0.054030 -5.206199 -40.473158 7.395997 -2.639676 0.416019 -32.642724 0.298280 0.904631 16.512887 8.987263 14.604303 12.204355 0.000000 0.000000 0.000000 11.859847 -0.836419 1.591512 6.425377 2.965565 30.027691 -0.137915 0.653960 -0.691038 0.000000 0.000000 0.000000 -4.905838 1.333579 16.154455 -7.131638 2.996025 -3.323966 1.866678 17.592789 10.070113 6.027078 -1.594139 -27.213472 0.000000 0.000000 0.000000 -16.704728 -7.033114 3.007406 -52.474349 -18.262850 1.081881 2.477777 -17.333147 0.440249 0.000000 0.000000 0.000000 11.420891 15.839102 5.852559 68.199336 31.900635 12.282588 2.375520 30.608046 1.607745 0.000000 0.000000 0.000000 
-0.124460 0.897475 0.077092 -6.228425 -39.975760 8.122801 -2.358226 0.408162 -32.233815 0.435631 1.410058 20.725184 7.005165 11.744882 10.816321 0.000000 0.000000 0.000000 11.149087 0.030650 -3.914023 13.045404 2.964010 39.633074 -0.231208 -6.246741 7.670878 0.000000 0.000000 0.000000 -5.143685 1.446061 16.660694 -6.885003 2.973575 -2.740032 0.554422 17.124742 9.387403 5.123189 -1.385056 -24.764110 0.000000 0.000000 0.000000 -15.000016 -8.375771 3.591958 -52.009600 -20.666466 2.218554 2.575387 -15.899722 0.365707 0.000000 0.000000 0.000000 11.806820 17.005216 6.462186 66.719699 32.336305 12.257162 2.717438 31.073784 1.727353 0.000000 0.000000 0.000000 
-0.160155 0.905477 0.095433 -6.112070 -37.952971 8.084161 -0.699644 0.384176 -29.823499 0.534730 1.570040 22.551964 5.072451 9.186995 6.619946 0.000000 0.000000 0.000000 6.582891 1.246108 -10.976471 20.356876 1.006665 45.328674 -5.823907 -16.441004 7.176306 0.000000 0.000000 0.000000 -4.929010 1.532363 18.131964 -6.008447 2.431812 -3.727565 -0.714289 15.211965 11.371316 4.594377 -1.439840 -23.034418 0.000000 0.000000 0.000000 -15.106578 -10.196883 4.806457 -49.797964 -23.347847 2.919777 2.302202 -16.300597 0.418909 0.000000 0.000000 0.000000 11.217866 17.583628 6.574706 67.184377 32.901055 12.416964 0.017685 31.627227 1.046040 0.000000 0.000000 0.000000 
-0.193916 0.914812 0.110506 -7.910108 -36.990071 9.481586 2.723537 1.158706 -28.163360 0.629521 1.649138 23.466434 3.779572 7.207849 3.842683 0.000000 0.000000 0.000000 4.466710 2.357993 -16.653000 22.815705 -0.153790 44.408487 -9.189662 -22.749673 5.837426 0.000000 0.000000 0.000000 -4.489744 1.517579 18.963682 -5.432787 2.097241 -4.415984 -0.400724 14.715821 12.052792 4.482534 -1.275579 -24.369128 0.000000 0.000000 0.000000 -14.441485 -11.321780 5.402328 -49.191258 -26.255688 4.080637 3.229685 -17.246860 0.323023 0.000000 0.000000 0.000000 11.395886 18.031497 6.767742 66.601882 33.582407 12.656767 -0.685838 30.724540 0.833918 0.000000 0.000000 0.000000 
-0.227134 0.925498 0.123529 -8.401998 -33.851464 9.846262 3.650469 0.874428 -25.788439 0.585958 1.216198 21.523160 3.656198 7.036777 5.201395 0.000000 0.000000 0.000000 3.908133 3.162907 -20.179567 19.408084 -0.158664 38.326526 -10.164398 -24.565238 4.466957 0.000000 0.000000 0.000000 -3.936116 1.315756 19.406964 -4.457185 1.761149 -3.775372 -0.706511 12.617129 12.087775 4.627125 -1.396363 -24.491677 0.000000 0.000000 0.000000 -14.956957 -12.544111 6.208920 -48.122438 -28.519920 4.854483 5.126700 -18.821318 0.078330 0.000000 0.000000 0.000000 11.174369 17.457101 6.404570 67.336950 32.639530 12.184455 -0.806421 30.316445 0.767605 0.000000 0.000000 0.000000 
-0.258687 0.932858 0.135237 -9.014158 -31.390111 10.113663 5.395142 1.033242 -24.486005 0.569471 1.050167 21.356687 3.669461 7.226151 4.623272 0.000000 0.000000 0.000000 3.751248 3.685565 -22.380150 14.758638 0.000355 29.171658 -10.239395 -24.676796 4.141498 0.000000 0.000000 0.000000 -3.686725 1.236118 20.124544 -4.151746 1.716874 -3.052615 -0.494996 11.626201 11.312333 5.267730 -1.739815 -23.698764 0.000000 0.000000 0.000000 -13.251824 -14.627063 6.941394 -48.756268 -30.866800 6.191186 6.775235 -21.146426 -0.211376 0.000000 0.000000 0.000000 10.547765 17.117657 6.303899 67.750145 31.802691 11.873146 -1.139393 29.891501 0.686350 0.000000 0.000000 0.000000 
-0.288730 0.936908 0.146118 -9.208957 -28.497851 10.011924 6.227038 0.893803 -23.109331 0.559183 0.878697 21.381773 3.548174 7.169711 4.687134 0.000000 0.000000 0.000000 3.637451 3.846051 -23.283148 9.545896 0.151172 20.218429 -8.172426 -21.774862 8.141649 0.000000 0.000000 0.000000 -3.122781 0.986481 20.223195 -3.507583 1.508235 -2.326992 -1.268504 10.380483 11.040673 5.424841 -1.804537 -23.379034 0.000000 0.000000 0.000000 -13.383774 -15.661418 7.403707 -47.882789 -33.404369 7.145792 7.984027 -23.852478 -0.472540 0.000000 0.000000 0.000000 10.093510 17.602507 6.570755 67.636886 31.126067 11.477395 -1.153884 29.205778 0.680112 0.000000 0.000000 0.000000 
-0.318071 0.937268 0.155667 -8.542691 -26.739331 9.468814 6.490954 0.733627 -22.028888 1.007986 0.670376 21.987562 3.431874 7.065474 2.589425 0.000000 0.000000 0.000000 3.162689 3.793619 -23.520312 5.075175 0.308573 13.557933 -5.744677 -17.960539 9.612237 0.000000 0.000000 0.000000 -3.129980 0.978020 20.893682 -3.356618 1.362352 -3.369357 -1.840366 9.868246 11.792055 5.882447 -2.154086 -22.368172 0.000000 0.000000 0.000000 -12.753114 -17.078222 7.976256 -48.733716 -35.121038 8.076383 10.433050 -26.427118 -1.051415 0.000000 0.000000 0.000000 10.180434 17.111335 6.431232 67.472617 30.879469 11.226500 -0.030383 29.279593 0.984744 0.000000 0.000000 0.000000 
-0.346945 0.935485 0.163268 -8.924023 -25.895372 9.737398 7.769492 0.910312 -21.116183 1.393477 0.490318 22.075852 2.929100 6.065667 0.534790 0.000000 0.000000 0.000000 2.570148 3.926244 -24.537431 3.489586 0.212325 9.362086 -2.945393 -14.204186 12.487904 0.000000 0.000000 0.000000 -2.577468 0.794229 20.779813 -2.959199 1.276797 -2.248712 -2.899857 10.608567 10.066908 6.530365 -2.422158 -21.177754 0.000000 0.000000 0.000000 -11.790787 -18.155596 8.012264 -50.097195 -35.950179 8.970283 10.962175 -26.948204 -1.278065 0.000000 0.000000 0.000000 11.358060 18.074679 7.235672 66.640506 31.092206 11.532843 -1.700913 28.356752 0.611506 0.000000 0.000000 0.000000 
-0.375698 0.933483 0.167943 -8.418982 -25.846133 10.227005 8.744379 1.219438 -21.896307 1.516088 0.598600 23.830933 3.003626 6.183545 -0.387045 0.000000 0.000000 0.000000 2.768131 4.077527 -25.054352 1.937028 0.258068 7.386137 0.015149 -10.078768 14.593090 0.000000 0.000000 0.000000 -2.101294 0.711923 21.108179 -3.830003 1.686263 -2.078738 -3.490484 10.774880 9.220529 7.863425 -3.342576 -19.506684 0.000000 0.000000 0.000000 -12.507093 -19.714210 8.785114 -48.713620 -36.293172 8.821253 11.298613 -26.574105 -1.375168 0.000000 0.000000 0.000000 11.863013 19.450265 8.026719 65.235271 33.488674 12.815160 -3.333493 26.339498 0.219087 0.000000 0.000000 0.000000 
-0.404214 0.930323 0.169804 -8.009903 -24.782149 10.429968 9.632349 1.442298 -22.638165 2.214473 0.391836 25.457497 2.744812 5.599009 -0.903964 0.000000 0.000000 0.000000 3.264212 4.091885 -24.934479 2.772516 0.210227 8.261857 -0.157728 -9.722147 13.599938 0.000000 0.000000 0.000000 -1.390042 0.571326 22.171234 -4.478486 2.018569 -1.733418 -3.698518 10.774065 8.450188 8.782302 -3.881464 -18.749509 0.000000 0.000000 0.000000 -12.746778 -21.038791 9.292395 -47.810780 -36.235100 8.622977 10.424343 -25.698030 -1.194370 0.000000 0.000000 0.000000 12.747612 19.670427 8.402637 64.082509 36.403081 14.453811 -4.077496 25.112746 0.080319 0.000000 0.000000 0.000000 
